<svg xmlns="http://www.w3.org/2000/svg" viewBox="0 0 280 104" width="280" height="104"><path fill="#FFFFFF" d="M61.03125 25.41015625 42.28125 80.0H22.359375L3.755859375 25.41015625H22.06640625L32.3203125 63.0078125H32.90625L42.96484375 25.41015625ZM60.33984374999999 80.0V25.41015625H77.72265625V80.0ZM68.982421875 19.16015625Q65.3203125 19.16015625 62.68359375 16.71875Q60.04687499999999 14.27734375 60.04687499999999 10.810546875Q60.04687499999999 7.34375 62.68359375 4.9267578125Q65.3203125 2.509765625 68.982421875 2.509765625Q72.693359375 2.509765625 75.3056640625 4.9267578125Q77.91796875 7.34375 77.91796875 10.810546875Q77.91796875 14.27734375 75.3056640625 16.71875Q72.693359375 19.16015625 68.982421875 19.16015625ZM101.15234374999999 80.78125Q95.14648437499999 80.78125 90.19042968749999 77.65625Q85.23437499999999 74.53125 82.30468749999999 68.28125Q79.37499999999999 62.03125 79.37499999999999 52.75390625Q79.37499999999999 43.134765625 82.42675781249999 36.93359375Q85.47851562499999 30.732421875 90.41015624999999 27.7294921875Q95.34179687499999 24.7265625 101.05468749999999 24.7265625Q105.35156249999999 24.7265625 108.40332031249999 26.19140625Q111.45507812499999 27.65625 113.45703124999999 29.9755859375Q115.45898437499999 32.294921875 116.48437499999999 34.78515625H116.82617187499999V7.24609375H134.208984375V80.0H117.07031249999999V71.11328125H116.48437499999999Q115.36132812499999 73.65234375 113.35937499999999 75.849609375Q111.35742187499999 78.046875 108.33007812499999 79.4140625Q105.30273437499999 80.78125 101.15234374999999 80.78125ZM107.15820312499999 67.255859375Q110.33203124999999 67.255859375 112.57812499999999 65.44921875Q114.82421874999999 63.642578125 116.04492187499999 60.3955078125Q117.26562499999999 57.1484375 117.26562499999999 52.75390625Q117.26562499999999 48.26171875 116.06933593749999 45.0146484375Q114.87304687499999 41.767578125 112.60253906249999 40.009765625Q110.33203124999999 38.251953125 107.15820312499999 38.251953125Q103.98437499999999 38.251953125 101.73828124999999 40.05859375Q99.49218749999999 41.865234375 98.34472656249999 45.1123046875Q97.19726562499999 48.359375 97.19726562499999 52.75390625Q97.19726562499999 57.099609375 98.36914062499999 60.37109375Q99.54101562499999 63.642578125 101.76269531249999 65.44921875Q103.98437499999999 67.255859375 107.15820312499999 67.255859375ZM148.55664062499997 100.41015625Q145.43164062499997 100.458984375 142.62402343749997 99.970703125Q139.81640624999997 99.482421875 137.86328124999997 98.75L141.72070312499997 86.103515625L142.11132812499997 86.201171875Q145.77343749999997 87.32421875 148.43457031249997 86.982421875Q151.09570312499997 86.640625 152.26757812499997 83.662109375L152.90234374999997 82.001953125L133.56640624999997 25.41015625H151.68164062499997L161.74023437499997 64.375H162.32617187499997L172.53124999999997 25.41015625H190.84179687499997L170.23632812499997 85.2734375Q168.77148437499997 89.716796875 166.06152343749997 93.134765625Q163.35156249999997 96.552734375 159.07910156249997 98.4814453125Q154.80664062499997 100.41015625 148.55664062499997 100.41015625ZM204.11523437499997 80.9765625Q198.89062499999997 80.9765625 194.81347656249997 79.1943359375Q190.73632812499997 77.412109375 188.44140624999997 73.84765625Q186.14648437499997 70.283203125 186.14648437499997 64.86328125Q186.14648437499997 60.322265625 187.73339843749997 57.197265625Q189.32031249999997 54.072265625 192.12792968749997 52.119140625Q194.93554687499997 50.166015625 198.59765624999997 49.1162109375Q202.25976562499997 48.06640625 206.41015624999997 47.7734375Q211.04882812499997 47.333984375 213.88085937499997 46.89453125Q216.71289062499997 46.455078125 218.00683593749997 45.52734375Q219.30078124999997 44.599609375 219.30078124999997 42.939453125V42.6953125Q219.30078124999997 40.009765625 217.44531249999997 38.49609375Q215.58984374999997 36.982421875 212.36718749999997 36.982421875Q208.90039062499997 36.982421875 206.82519531249997 38.49609375Q204.74999999999997 40.009765625 204.16406249999997 42.59765625L188.19726562499997 42.060546875Q188.88085937499997 37.080078125 191.83496093749997 33.1494140625Q194.78906249999997 29.21875 199.98925781249997 26.97265625Q205.18945312499997 24.7265625 212.56249999999997 24.7265625Q217.73828124999997 24.7265625 222.13281249999997 25.947265625Q226.52734374999997 27.16796875 229.79882812499997 29.51171875Q233.07031249999997 31.85546875 234.87695312499997 35.224609375Q236.68359374999997 38.59375 236.68359374999997 42.890625V80.0H220.32617187499997V72.333984375H219.93554687499997Q218.42187499999997 75.166015625 216.17578124999997 77.0703125Q213.92968749999997 78.974609375 210.92675781249997 79.9755859375Q207.92382812499997 80.9765625 204.11523437499997 80.9765625ZM209.43749999999997 69.55078125Q212.22070312499997 69.55078125 214.49121093749997 68.4033203125Q216.76171874999997 67.255859375 218.10449218749997 65.25390625Q219.44726562499997 63.251953125 219.44726562499997 60.56640625V55.439453125Q218.71484374999997 55.830078125 217.66503906249997 56.1474609375Q216.61523437499997 56.46484375 215.34570312499997 56.7578125Q214.07617187499997 57.05078125 212.78222656249997 57.24609375Q211.48828124999997 57.44140625 210.31640624999997 57.63671875Q207.82617187499997 57.978515625 206.09277343749997 58.8330078125Q204.35937499999997 59.6875 203.48046874999997 60.95703125Q202.60156249999997 62.2265625 202.60156249999997 64.033203125Q202.60156249999997 66.71875 204.50585937499997 68.134765625Q206.41015624999997 69.55078125 209.43749999999997 69.55078125Z"/><path fill="#FFFFFF" d="M255.14257812499997 81.07421875Q251.18749999999997 81.07421875 248.50195312499997 78.4130859375Q245.81640624999997 75.751953125 245.81640624999997 71.845703125Q245.81640624999997 67.939453125 248.50195312499997 65.2783203125Q251.18749999999997 62.6171875 255.14257812499997 62.6171875Q259.09765625 62.6171875 261.783203125 65.2783203125Q264.46875 67.939453125 264.46875 71.845703125Q264.46875 75.751953125 261.783203125 78.4130859375Q259.09765625 81.07421875 255.14257812499997 81.07421875Z"/></svg>